# xmcd
#
# Track frame offsets: 
#        150
#        15185
#        32973
#        47778
#        64273
#        80056
#        99353
#        112780
#        128260
#        145226
#        158441
#
# Disc length: 2341 seconds
#
# Revision: 2
# Processed by: cddbd v1.5.2PL0 Copyright (c) Steve Scherf et al.
# Submitted via: ExactAudioCopyFreeDBPlugin 1.0
#
DISCID=7c09230b
DTITLE=Various Artist - Country 93.9 KZLA Highway 93.9
DYEAR=2003
DGENRE=Country
TTITLE0=Mark Wills - 19 Somethin'
TTITLE1=Jamie O'Neal - There Is No Arizona
TTITLE2=Nickel Creek - Smoothie Song
TTITLE3=Rascal Flatts - Prayin' for Daylight
TTITLE4=Willie Nelson - The Great Divide
TTITLE5=Jessica Andrews - Who I Am
TTITLE6=The Mavericks - I'm Wondering
TTITLE7=Terri Clark - I Just Wanna Be Mad
TTITLE8=Buddy Jewell - Sweet Southern Comfort
TTITLE9=Cyndi Thomson - What I Really Meant to Say
TTITLE10=Ashley Gearing - Can You Hear Me When I Talk to You?
EXTD=
EXTT0=
EXTT1=
EXTT2=
EXTT3=
EXTT4=
EXTT5=
EXTT6=
EXTT7=
EXTT8=
EXTT9=
EXTT10=
PLAYORDER=
